<svg width="60" height="60" viewBox="0 0 60 60" fill="none" xmlns="http://www.w3.org/2000/svg">
<path fill-rule="evenodd" clip-rule="evenodd" d="M30 25.5C31.5913 25.5 33.1174 24.8679 34.2426 23.7426C35.3679 22.6174 36 21.0913 36 19.5C36 17.9087 35.3679 16.3826 34.2426 15.2574C33.1174 14.1321 31.5913 13.5 30 13.5C28.4087 13.5 26.8826 14.1321 25.7574 15.2574C24.6321 16.3826 24 17.9087 24 19.5C24 21.0913 24.6321 22.6174 25.7574 23.7426C26.8826 24.8679 28.4087 25.5 30 25.5ZM30 16.5C30.7956 16.5 31.5587 16.8161 32.1213 17.3787C32.6839 17.9413 33 18.7044 33 19.5C33 20.2956 32.6839 21.0587 32.1213 21.6213C31.5587 22.1839 30.7956 22.5 30 22.5C29.2044 22.5 28.4413 22.1839 27.8787 21.6213C27.3161 21.0587 27 20.2956 27 19.5C27 18.7044 27.3161 17.9413 27.8787 17.3787C28.4413 16.8161 29.2044 16.5 30 16.5Z" fill="#77BBB8"/>
<path fill-rule="evenodd" clip-rule="evenodd" d="M16.5 18.858C16.5 26.877 24.459 40.5 30 40.5C35.544 40.5 43.5 26.877 43.5 18.858C43.5 10.95 37.479 4.5 30 4.5C22.521 4.5 16.5 10.95 16.5 18.858ZM40.5 18.858C40.5 25.437 33.456 37.5 30 37.5C26.547 37.5 19.5 25.44 19.5 18.858C19.5 12.561 24.225 7.5 30 7.5C35.775 7.5 40.5 12.561 40.5 18.858Z" fill="#77BBB8"/>
<path d="M40.3048 27.4201C39.9461 27.2657 39.6618 26.9776 39.5122 26.6169C39.3626 26.2562 39.3595 25.8514 39.5037 25.4885C39.6478 25.1256 39.9278 24.8332 40.2841 24.6734C40.6404 24.5137 41.045 24.4992 41.4118 24.6331C42.6318 25.1169 43.7311 25.8617 44.6328 26.8153C45.5346 27.7688 46.2168 28.908 46.6318 30.1531L50.6338 42.1531C51.0851 43.5065 51.2082 44.9478 50.993 46.3581C50.7777 47.7685 50.2302 49.1074 49.3957 50.2645C48.5611 51.4217 47.4635 52.3639 46.1932 53.0133C44.923 53.6628 43.5165 54.001 42.0898 54.0001H17.9098C16.4837 54.0001 15.0779 53.6612 13.8084 53.0113C12.5389 52.3614 11.4421 51.4191 10.6082 50.2621C9.77441 49.1051 9.22746 47.7665 9.0125 46.3566C8.79753 44.9468 8.92069 43.506 9.37184 42.1531L13.3708 30.1531C13.7931 28.8857 14.4922 27.7282 15.4174 26.7646C16.3426 25.801 17.4707 25.0555 18.7198 24.5821C18.904 24.5121 19.1002 24.4792 19.2971 24.485C19.494 24.4909 19.6878 24.5355 19.8675 24.6163C20.0472 24.6971 20.2092 24.8125 20.3443 24.9559C20.4794 25.0993 20.5849 25.2679 20.6548 25.4521C20.7248 25.6362 20.7577 25.8324 20.7519 26.0293C20.746 26.2262 20.7014 26.4201 20.6206 26.5997C20.5398 26.7794 20.4244 26.9414 20.281 27.0765C20.1376 27.2116 19.969 27.3171 19.7848 27.3871C18.951 27.7025 18.198 28.1998 17.5804 28.8427C16.9629 29.4857 16.4964 30.2582 16.2148 31.1041L12.2158 43.1041C11.9154 44.0061 11.8336 44.9665 11.9772 45.9063C12.1208 46.8461 12.4857 47.7384 13.0418 48.5095C13.5979 49.2806 14.3292 49.9086 15.1756 50.3416C16.022 50.7746 16.9591 51.0003 17.9098 51.0001H42.0958C43.0466 51 43.9838 50.7739 44.8301 50.3405C45.6764 49.9071 46.4076 49.2788 46.9634 48.5074C47.5192 47.736 47.8837 46.8435 48.0269 45.9035C48.17 44.9635 48.0878 44.003 47.7868 43.1011L43.7908 31.1011C43.5139 30.2714 43.059 29.5123 42.4578 28.877C41.8567 28.2416 41.1239 27.7454 40.3108 27.4231" fill="#77BBB8"/>
</svg>
