<svg width="50" height="50" viewBox="0 0 50 50" fill="none" xmlns="http://www.w3.org/2000/svg">
<g clip-path="url(#clip0_292_154)">
<path d="M35.4165 6.95843C38.5587 8.77272 41.1726 11.3762 42.9995 14.5111C44.8263 17.6461 45.8027 21.2038 45.832 24.8321C45.8613 28.4603 44.9425 32.0333 43.1665 35.1974C41.3906 38.3614 38.8191 41.0068 35.7066 42.8716C32.5941 44.7364 29.0485 45.756 25.4209 45.8294C21.7932 45.9028 18.2093 45.0275 15.0239 43.2902C11.8385 41.5528 9.16207 39.0137 7.25956 35.9241C5.35705 32.8345 4.29444 29.3016 4.17692 25.6751L4.1665 25.0001L4.17692 24.3251C4.29359 20.7272 5.34056 17.2209 7.21575 14.148C9.09094 11.0752 11.7304 8.54063 14.8767 6.79152C18.023 5.04242 21.5689 4.13843 25.1686 4.16768C28.7683 4.19693 32.299 5.15843 35.4165 6.95843ZM24.9998 12.5001C24.4896 12.5002 23.997 12.6875 23.6157 13.0266C23.2344 13.3657 22.9908 13.8329 22.9311 14.3397L22.9165 14.5834V25.0001L22.9353 25.273C22.9828 25.6345 23.1243 25.9771 23.3457 26.2668L23.5269 26.4751L29.7769 32.7251L29.9728 32.8959C30.3381 33.1794 30.7874 33.3333 31.2498 33.3333C31.7123 33.3333 32.1616 33.1794 32.5269 32.8959L32.7228 32.723L32.8957 32.5272C33.1791 32.1618 33.333 31.7125 33.333 31.2501C33.333 30.7877 33.1791 30.3384 32.8957 29.973L32.7228 29.7772L27.0832 24.1355V14.5834L27.0686 14.3397C27.0089 13.8329 26.7653 13.3657 26.3839 13.0266C26.0026 12.6875 25.5101 12.5002 24.9998 12.5001Z" fill="#77BBB8"/>
</g>
<defs>
<clipPath id="clip0_292_154">
<rect width="50" height="50" fill="white"/>
</clipPath>
</defs>
</svg>
