<svg id="visual" viewBox="0 0 960 540" width="960" height="540" xmlns="http://www.w3.org/2000/svg" xmlns:xlink="http://www.w3.org/1999/xlink" version="1.1"><path d="M0 183L7.7 195.7C15.3 208.3 30.7 233.7 45.8 254C61 274.3 76 289.7 91.2 306.8C106.3 324 121.7 343 137 351.3C152.3 359.7 167.7 357.3 183 340.7C198.3 324 213.7 293 228.8 283.8C244 274.7 259 287.3 274.2 296.2C289.3 305 304.7 310 320 300.5C335.3 291 350.7 267 365.8 252.5C381 238 396 233 411.2 246.7C426.3 260.3 441.7 292.7 457 292.3C472.3 292 487.7 259 503 265.5C518.3 272 533.7 318 548.8 323.5C564 329 579 294 594.2 293.2C609.3 292.3 624.7 325.7 640 339.5C655.3 353.3 670.7 347.7 685.8 333.7C701 319.7 716 297.3 731.2 300.8C746.3 304.3 761.7 333.7 777 318C792.3 302.3 807.7 241.7 823 229.8C838.3 218 853.7 255 868.8 281.7C884 308.3 899 324.7 914.2 331.5C929.3 338.3 944.7 335.7 952.3 334.3L960 333" fill="none" stroke-linecap="round" stroke-linejoin="miter" stroke="#0E7387" stroke-width="5"></path></svg>