<svg id="visual" viewBox="0 0 960 540" width="960" height="540" xmlns="http://www.w3.org/2000/svg" xmlns:xlink="http://www.w3.org/1999/xlink" version="1.1"><path d="M0 286L8 294.7C16 303.3 32 320.7 48 315.3C64 310 80 282 96 296C112 310 128 366 144 398.7C160 431.3 176 440.7 192 437.8C208 435 224 420 240 396.2C256 372.3 272 339.7 288 339C304 338.3 320 369.7 336 368.3C352 367 368 333 384 330.2C400 327.3 416 355.7 432 357.7C448 359.7 464 335.3 480 326.2C496 317 512 323 528 349.2C544 375.3 560 421.7 576 410C592 398.3 608 328.7 624 293.8C640 259 656 259 672 277C688 295 704 331 720 337.2C736 343.3 752 319.7 768 304.7C784 289.7 800 283.3 816 308.3C832 333.3 848 389.7 864 421C880 452.3 896 458.7 912 456.3C928 454 944 443 952 437.5L960 432" fill="none" stroke-linecap="round" stroke-linejoin="miter" stroke="#0E7387" stroke-width="20"></path></svg>