<svg id="visual" viewBox="0 0 960 540" width="960" height="540" xmlns="http://www.w3.org/2000/svg" xmlns:xlink="http://www.w3.org/1999/xlink" version="1.1"><path d="M0 347L12.3 328C24.7 309 49.3 271 74 259.5C98.7 248 123.3 263 148 276C172.7 289 197.3 300 221.8 286.5C246.3 273 270.7 235 295.2 239.2C319.7 243.3 344.3 289.7 369 307.8C393.7 326 418.3 316 443 312.7C467.7 309.3 492.3 312.7 517 311.7C541.7 310.7 566.3 305.3 591 297.5C615.7 289.7 640.3 279.3 664.8 261C689.3 242.7 713.7 216.3 738.2 195.2C762.7 174 787.3 158 812 175.2C836.7 192.3 861.3 242.7 886 256.3C910.7 270 935.3 247 947.7 235.5L960 224" fill="none" stroke-linecap="round" stroke-linejoin="miter" stroke="#0E7387" stroke-width="5"></path></svg>