<svg id="visual" viewBox="0 0 960 540" width="960" height="540" xmlns="http://www.w3.org/2000/svg" xmlns:xlink="http://www.w3.org/1999/xlink" version="1.1"><path d="M0 273L32 270.3C64 267.7 128 262.3 192 259.7C256 257 320 257 384 259.5C448 262 512 267 576 270.5C640 274 704 276 768 271.7C832 267.3 896 256.7 928 251.3L960 246L960 541L928 541C896 541 832 541 768 541C704 541 640 541 576 541C512 541 448 541 384 541C320 541 256 541 192 541C128 541 64 541 32 541L0 541Z" fill="#77BBB8" stroke-linecap="round" stroke-linejoin="miter"></path></svg>