<svg width="1920" height="1080" viewBox="0 0 1920 1080" fill="none" xmlns="http://www.w3.org/2000/svg">
<g clip-path="url(#clip0_322_3)">
<g clip-path="url(#clip1_322_3)">
<path d="M-43 97.5388L23 87.6038C89 78.0368 221 58.1668 353 48.5998C485 38.6648 617 38.6648 749 47.8638C881 57.0629 1013 75.4611 1145 88.3398C1277 101.218 1409 108.578 1541 92.7554C1673 76.565 1805 37.5609 1871 17.6909L1937 -1.81116V1083.68H1871C1805 1083.68 1673 1083.68 1541 1083.68C1409 1083.68 1277 1083.68 1145 1083.68C1013 1083.68 881 1083.68 749 1083.68C617 1083.68 485 1083.68 353 1083.68C221 1083.68 89 1083.68 23 1083.68H-43V97.5388Z" fill="#77BBB8"/>
</g>
</g>
<defs>
<clipPath id="clip0_322_3">
<rect width="1920" height="1080" fill="white"/>
</clipPath>
<clipPath id="clip1_322_3">
<rect width="1980" height="1987" fill="white" transform="translate(-43 -907)"/>
</clipPath>
</defs>
</svg>
